<svg data-v-fde0c5aa="" xmlns="http://www.w3.org/2000/svg" viewBox="0 0 300 300" class="iconLeftSlogan"><!----><defs data-v-fde0c5aa=""><!----></defs><rect data-v-fde0c5aa="" fill="transparent" x="0" y="0" width="300px" height="300px" class="logo-background-square"></rect><defs data-v-fde0c5aa=""><!----></defs><g data-v-fde0c5aa="" id="308423e4-ff5c-4ab1-9cf0-9cbd98974160" fill="#2e3034" transform="matrix(3.888831082713369,0,0,3.888831082713369,131.51301491710274,98.07840011244066)"><path d="M0.64 15.68L0.64 5.88L2.88 5.88L4.20 15.18L4.37 15.18L5.68 5.88L7.92 5.88L7.92 15.68L6.83 15.68L6.83 6.38L6.66 6.38L5.35 15.68L3.22 15.68L1.90 6.38L1.74 6.38L1.74 15.68L0.64 15.68ZM12.26 15.68L12.26 12.24L12.01 12.24L8.95 5.88L10.26 5.88L12.77 11.23L12.94 11.23L15.44 5.88L16.76 5.88L13.69 12.24L13.44 12.24L13.44 15.68L12.26 15.68ZM18.35 15.68L18.35 5.88L19.53 5.88L19.53 14.59L24.65 14.59L24.65 15.68L18.35 15.68ZM27.02 15.68L27.02 5.88L32.96 5.88L32.96 6.97L28.20 6.97L28.20 10.22L32.87 10.22L32.87 11.31L28.20 11.31L28.20 14.59L33.04 14.59L33.04 15.68L27.02 15.68Z"></path></g><defs data-v-fde0c5aa=""><!----></defs><g data-v-fde0c5aa="" id="dc2b5837-5b7c-42e8-baa3-e774ad1f0b5c" stroke="none" fill="#488eff" transform="matrix(2.5313083433187975,0,0,2.5313083433187975,40,109.49906650689924)"><path d="M0 32h32V0H0v32zm19.377-19.492l6.936-6.936v20.855h-6.936V12.508zM5.688 5.572l6.936 6.936v13.919H5.688V5.572z"></path></g><defs data-v-fde0c5aa=""><!----></defs><g data-v-fde0c5aa="" id="9dc83436-863b-4b68-982b-89045c3f5c34" fill="#2e3034" transform="matrix(0.4204843503428376,0,0,0.4204843503428376,133.38795981866076,167.52470959680483)"><path d="M10.05 3.78L10.05 13.02L9.38 13.02L9.38 6.13L9.46 4.45L9.45 4.45L6.08 13.02L5.43 13.02L2.06 4.45L2.04 4.45L2.13 6.13L2.13 13.02L1.46 13.02L1.46 3.78L2.51 3.78L5.29 10.78L5.75 12.19L5.77 12.19L6.22 10.79L9.00 3.78L10.05 3.78ZM26.25 13.02L25.09 10.12L20.66 10.12L19.52 13.02L18.77 13.02L22.47 3.78L23.30 3.78L26.99 13.02L26.25 13.02ZM20.93 9.48L24.84 9.48L23.23 5.45L22.89 4.47L22.88 4.47L22.54 5.42L20.93 9.48ZM41.65 13.02L38.26 8.04L36.41 9.91L36.41 13.02L35.71 13.02L35.71 3.78L36.41 3.78L36.41 8.96L41.48 3.78L42.41 3.78L38.75 7.52L42.50 13.02L41.65 13.02ZM51.95 12.38L57.79 12.38L57.79 13.02L51.25 13.02L51.25 3.78L57.57 3.78L57.57 4.42L51.95 4.42L51.95 7.99L56.39 7.99L56.39 8.65L51.95 8.65L51.95 12.38ZM83.66 3.78L80.39 9.42L80.39 13.02L79.69 13.02L79.69 9.42L76.41 3.78L77.24 3.78L80.04 8.69L82.84 3.78L83.66 3.78ZM95.63 3.64L95.63 3.64Q96.94 3.64 97.90 4.22L97.90 4.22L97.90 4.22Q98.85 4.80 99.37 5.87L99.37 5.87L99.37 5.87Q99.89 6.94 99.89 8.40L99.89 8.40L99.89 8.40Q99.89 9.86 99.37 10.93L99.37 10.93L99.37 10.93Q98.85 12.00 97.90 12.58L97.90 12.58L97.90 12.58Q96.94 13.16 95.63 13.16L95.63 13.16L95.63 13.16Q94.33 13.16 93.37 12.58L93.37 12.58L93.37 12.58Q92.41 12.00 91.90 10.93L91.90 10.93L91.90 10.93Q91.38 9.86 91.38 8.40L91.38 8.40L91.38 8.40Q91.38 6.94 91.90 5.87L91.90 5.87L91.90 5.87Q92.41 4.80 93.37 4.22L93.37 4.22L93.37 4.22Q94.33 3.64 95.63 3.64L95.63 3.64ZM95.63 4.28L95.63 4.28Q94.56 4.28 93.77 4.78L93.77 4.78L93.77 4.78Q92.97 5.28 92.55 6.21L92.55 6.21L92.55 6.21Q92.12 7.14 92.12 8.40L92.12 8.40L92.12 8.40Q92.12 9.66 92.55 10.59L92.55 10.59L92.55 10.59Q92.97 11.52 93.77 12.02L93.77 12.02L93.77 12.02Q94.56 12.52 95.63 12.52L95.63 12.52L95.63 12.52Q96.71 12.52 97.51 12.02L97.51 12.02L97.51 12.02Q98.31 11.52 98.73 10.59L98.73 10.59L98.73 10.59Q99.16 9.66 99.16 8.40L99.16 8.40L99.16 8.40Q99.16 7.14 98.73 6.21L98.73 6.21L98.73 6.21Q98.31 5.28 97.51 4.78L97.51 4.78L97.51 4.78Q96.71 4.28 95.63 4.28L95.63 4.28ZM116.23 3.78L116.23 9.65L116.23 9.65Q116.23 11.35 115.30 12.26L115.30 12.26L115.30 12.26Q114.38 13.16 112.67 13.16L112.67 13.16L112.67 13.16Q110.96 13.16 110.03 12.26L110.03 12.26L110.03 12.26Q109.10 11.35 109.10 9.65L109.10 9.65L109.10 3.78L109.80 3.78L109.80 9.51L109.80 9.51Q109.80 10.99 110.53 11.75L110.53 11.75L110.53 11.75Q111.26 12.52 112.67 12.52L112.67 12.52L112.67 12.52Q114.07 12.52 114.80 11.75L114.80 11.75L114.80 11.75Q115.53 10.99 115.53 9.51L115.53 9.51L115.53 3.78L116.23 3.78ZM132.97 13.02L132.15 13.02L129.50 9.02L129.46 9.02L126.73 9.02L126.73 13.02L126.03 13.02L126.03 3.78L129.46 3.78L129.46 3.78Q130.84 3.78 131.66 4.48L131.66 4.48L131.66 4.48Q132.48 5.18 132.48 6.40L132.48 6.40L132.48 6.40Q132.48 7.41 131.89 8.07L131.89 8.07L131.89 8.07Q131.31 8.74 130.28 8.93L130.28 8.93L132.97 13.02ZM126.73 4.42L126.73 8.36L129.44 8.36L129.44 8.36Q130.56 8.36 131.16 7.85L131.16 7.85L131.16 7.85Q131.75 7.35 131.75 6.40L131.75 6.40L131.75 6.40Q131.75 5.45 131.16 4.93L131.16 4.93L131.16 4.93Q130.56 4.42 129.44 4.42L129.44 4.42L126.73 4.42ZM154.07 12.38L159.61 12.38L159.61 13.02L153.37 13.02L153.37 3.78L154.07 3.78L154.07 12.38ZM169.08 3.78L169.08 13.02L168.38 13.02L168.38 3.78L169.08 3.78ZM185.29 4.42L179.69 4.42L179.69 7.99L184.13 7.99L184.13 8.65L179.69 8.65L179.69 13.02L178.99 13.02L178.99 3.78L185.29 3.78L185.29 4.42ZM194.87 12.38L200.70 12.38L200.70 13.02L194.17 13.02L194.17 3.78L200.48 3.78L200.48 4.42L194.87 4.42L194.87 7.99L199.30 7.99L199.30 8.65L194.87 8.65L194.87 12.38ZM221.82 12.38L227.65 12.38L227.65 13.02L221.12 13.02L221.12 3.78L227.43 3.78L227.43 4.42L221.82 4.42L221.82 7.99L226.25 7.99L226.25 8.65L221.82 8.65L221.82 12.38ZM242.97 13.02L241.81 10.12L237.38 10.12L236.24 13.02L235.49 13.02L239.19 3.78L240.02 3.78L243.71 13.02L242.97 13.02ZM237.65 9.48L241.56 9.48L239.95 5.45L239.61 4.47L239.60 4.47L239.26 5.42L237.65 9.48ZM255.18 3.64L255.18 3.64Q257.78 3.64 258.66 5.68L258.66 5.68L258.06 6.17L258.06 6.17Q257.71 5.18 257.02 4.73L257.02 4.73L257.02 4.73Q256.33 4.28 255.19 4.28L255.19 4.28L255.19 4.28Q254.38 4.28 253.78 4.54L253.78 4.54L253.78 4.54Q253.18 4.79 252.86 5.22L252.86 5.22L252.86 5.22Q252.55 5.66 252.55 6.20L252.55 6.20L252.55 6.20Q252.55 6.73 252.81 7.08L252.81 7.08L252.81 7.08Q253.08 7.43 253.72 7.68L253.72 7.68L253.72 7.68Q254.35 7.92 255.47 8.12L255.47 8.12L255.47 8.12Q257.28 8.43 258.03 9.02L258.03 9.02L258.03 9.02Q258.79 9.60 258.79 10.64L258.79 10.64L258.79 10.64Q258.79 11.38 258.36 11.96L258.36 11.96L258.36 11.96Q257.92 12.53 257.13 12.84L257.13 12.84L257.13 12.84Q256.34 13.16 255.32 13.16L255.32 13.16L255.32 13.16Q253.86 13.16 252.86 12.58L252.86 12.58L252.86 12.58Q251.86 12.00 251.50 10.95L251.50 10.95L252.11 10.47L252.11 10.47Q252.39 11.47 253.24 11.99L253.24 11.99L253.24 11.99Q254.09 12.52 255.33 12.52L255.33 12.52L255.33 12.52Q256.54 12.52 257.30 12.03L257.30 12.03L257.30 12.03Q258.06 11.54 258.06 10.68L258.06 10.68L258.06 10.68Q258.06 9.94 257.44 9.51L257.44 9.51L257.44 9.51Q256.82 9.07 255.28 8.81L255.28 8.81L255.28 8.81Q253.97 8.58 253.22 8.26L253.22 8.26L253.22 8.26Q252.46 7.94 252.13 7.46L252.13 7.46L252.13 7.46Q251.80 6.99 251.80 6.27L251.80 6.27L251.80 6.27Q251.80 5.56 252.22 4.96L252.22 4.96L252.22 4.96Q252.63 4.35 253.39 4.00L253.39 4.00L253.39 4.00Q254.16 3.64 255.18 3.64L255.18 3.64ZM268.69 3.78L268.69 13.02L267.99 13.02L267.99 3.78L268.69 3.78ZM279.30 12.38L285.14 12.38L285.14 13.02L278.60 13.02L278.60 3.78L284.91 3.78L284.91 4.42L279.30 4.42L279.30 7.99L283.74 7.99L283.74 8.65L279.30 8.65L279.30 12.38ZM301.11 13.02L300.29 13.02L297.64 9.02L297.60 9.02L294.87 9.02L294.87 13.02L294.17 13.02L294.17 3.78L297.60 3.78L297.60 3.78Q298.98 3.78 299.80 4.48L299.80 4.48L299.80 4.48Q300.62 5.18 300.62 6.40L300.62 6.40L300.62 6.40Q300.62 7.41 300.03 8.07L300.03 8.07L300.03 8.07Q299.45 8.74 298.42 8.93L298.42 8.93L301.11 13.02ZM294.87 4.42L294.87 8.36L297.58 8.36L297.58 8.36Q298.70 8.36 299.30 7.85L299.30 7.85L299.30 7.85Q299.89 7.35 299.89 6.40L299.89 6.40L299.89 6.40Q299.89 5.45 299.30 4.93L299.30 4.93L299.30 4.93Q298.70 4.42 297.58 4.42L297.58 4.42L294.87 4.42Z"></path></g></svg>